<svg width="48" height="48" viewBox="0 0 48 48" fill="none" xmlns="http://www.w3.org/2000/svg">
<path d="M31.4225 32.094C38.7837 33.177 44 35.951 44 39.2V43H5V39.2C5 35.951 10.2162 33.177 17.5775 32.094L24.5 41.1L31.4225 32.094ZM14.75 16.4H34.25V20.2C34.25 22.2157 33.2228 24.1487 31.3943 25.574C29.5658 26.9993 27.0859 27.8 24.5 27.8C21.9141 27.8 19.4342 26.9993 17.6057 25.574C15.7772 24.1487 14.75 22.2157 14.75 20.2V16.4ZM14.75 14.5L15.7494 6.71002C15.81 6.23973 16.0933 5.80394 16.5441 5.48774C16.9948 5.17155 17.5805 4.99766 18.1869 5.00002H30.8375C32.0806 5.00002 33.1287 5.74102 33.2506 6.71002L34.25 14.5H14.75ZM24.5 6.90002H22.0625V8.80002H19.625V10.7H22.0625V12.6H24.5V10.7H26.9375V8.80002H24.5V6.90002Z" fill="black"/>
</svg>
