<svg width="48" height="48" viewBox="0 0 48 48" fill="none" xmlns="http://www.w3.org/2000/svg">
<path d="M40 36.9381V24.9568C40.0001 24.1232 39.8279 23.2984 39.4939 22.5328C39.16 21.7673 38.6713 21.0772 38.0578 20.5047L26.6297 9.83696C26.0541 9.29948 25.2921 9 24.5 9C23.7079 9 22.9459 9.29948 22.3703 9.83696L10.9421 20.5047C10.3287 21.0772 9.84003 21.7673 9.50607 22.5328C9.17212 23.2984 8.99991 24.1232 9 24.9568V36.9381C9 37.7501 9.32661 38.529 9.90797 39.1032C10.4893 39.6774 11.2778 40 12.1 40H36.9C37.7222 40 38.5107 39.6774 39.092 39.1032C39.6734 38.529 40 37.7501 40 36.9381Z" stroke="black" stroke-width="2" stroke-linecap="round" stroke-linejoin="round"/>
</svg>
