<svg width="48" height="48" viewBox="0 0 48 48" fill="none" xmlns="http://www.w3.org/2000/svg">
<path d="M22.392 11.2482V8C19.1598 8.32161 16.2171 9.60804 13.8372 11.5538L16.1206 13.8533C17.9376 12.4348 20.1047 11.5346 22.392 11.2482ZM34.1628 11.5538C31.7241 9.55146 28.7477 8.31502 25.608 8V11.2482C27.9558 11.5377 30.0945 12.4704 31.8794 13.8533L34.1628 11.5538ZM36.7518 22.392H40C39.6784 19.1598 38.392 16.2171 36.4462 13.8372L34.1467 16.1206C35.5652 17.9376 36.4654 20.1047 36.7518 22.392ZM13.8533 16.1206L11.5538 13.8372C9.55146 16.2759 8.31502 19.2523 8 22.392H11.2482C11.5377 20.0442 12.4704 17.9055 13.8533 16.1206ZM11.2482 25.608H8C8.32161 28.8402 9.60804 31.7829 11.5538 34.1628L13.8533 31.8633C12.4323 30.0539 11.5317 27.8912 11.2482 25.608ZM28.8241 24C28.8241 21.3307 26.6693 19.1759 24 19.1759C21.3307 19.1759 19.1759 21.3307 19.1759 24C19.1759 26.6693 21.3307 28.8241 24 28.8241C26.6693 28.8241 28.8241 26.6693 28.8241 24ZM34.1467 31.8794L36.4462 34.1789C38.4459 31.7386 39.682 28.763 40 25.6241H36.7518C36.4623 27.9057 35.5623 30.0668 34.1467 31.8794ZM25.608 36.7518V40C28.8402 39.6784 31.7829 38.392 34.1628 36.4462L31.8633 34.1467C30.0945 35.5296 27.9558 36.4623 25.608 36.7518ZM13.8372 36.4462C16.2775 38.4459 19.2531 39.682 22.392 40V36.7518C20.1047 36.4654 17.9376 35.5652 16.1206 34.1467L13.8372 36.4462Z" fill="black"/>
</svg>
