<svg width="48" height="48" viewBox="0 0 48 48" fill="none" xmlns="http://www.w3.org/2000/svg">
<path fill-rule="evenodd" clip-rule="evenodd" d="M17 28.013C17.503 27.898 19 30 19 30H29C29 30 30.497 27.898 31 28.013C36.404 29.243 42 32.795 42 36.57V42H6V36.57C6 32.795 11.596 29.243 17 28.013ZM32 34V32H34V34H36V36H34V38H32V36H30V34H32ZM24 24C26.1217 24 28.1566 23.1571 29.6569 21.6569C31.1571 20.1566 32 18.1217 32 16C32 13.8783 31.1571 11.8434 29.6569 10.3431C28.1566 8.84285 26.1217 8 24 8C21.8783 8 19.8434 8.84285 18.3431 10.3431C16.8429 11.8434 16 13.8783 16 16C16 18.1217 16.8429 20.1566 18.3431 21.6569C19.8434 23.1571 21.8783 24 24 24ZM24 26C29.523 26 34 21.523 34 16C34 10.477 29.523 6 24 6C18.477 6 14 10.477 14 16C14 21.523 18.477 26 24 26Z" fill="black"/>
</svg>
