<svg width="48" height="48" viewBox="0 0 48 48" fill="none" xmlns="http://www.w3.org/2000/svg">
<path d="M25.1304 16.4967C26.8025 16.4967 28.406 15.8384 29.5883 14.6666C30.7706 13.4948 31.4348 11.9055 31.4348 10.2484C31.4348 8.59119 30.7706 7.00189 29.5883 5.8301C28.406 4.65831 26.8025 4 25.1304 4C23.4584 4 21.8549 4.65831 20.6726 5.8301C19.4903 7.00189 18.8261 8.59119 18.8261 10.2484C18.8261 11.9055 19.4903 13.4948 20.6726 14.6666C21.8549 15.8384 23.4584 16.4967 25.1304 16.4967ZM20.087 18.996C18.7493 18.996 17.4665 19.5227 16.5207 20.4601C15.5748 21.3976 15.0435 22.669 15.0435 23.9947V25.2444C15.0435 25.5758 15.1763 25.8937 15.4128 26.1281C15.6492 26.3624 15.9699 26.4941 16.3043 26.4941H33.9565C34.2909 26.4941 34.6116 26.3624 34.8481 26.1281C35.0846 25.8937 35.2174 25.5758 35.2174 25.2444V23.9947C35.2174 22.669 34.686 21.3976 33.7402 20.4601C32.7944 19.5227 31.5115 18.996 30.1739 18.996H20.087ZM13.7826 33.3673C13.7826 33.8644 13.5833 34.3412 13.2287 34.6927C12.874 35.0443 12.3929 35.2418 11.8913 35.2418C11.3897 35.2418 10.9086 35.0443 10.554 34.6927C10.1993 34.3412 10 33.8644 10 33.3673C10 32.8701 10.1993 32.3933 10.554 32.0418C10.9086 31.6902 11.3897 31.4928 11.8913 31.4928C12.3929 31.4928 12.874 31.6902 13.2287 32.0418C13.5833 32.3933 13.7826 32.8701 13.7826 33.3673ZM11.8913 42.7398C12.3929 42.7398 12.874 42.5423 13.2287 42.1908C13.5833 41.8392 13.7826 41.3624 13.7826 40.8653C13.7826 40.3681 13.5833 39.8913 13.2287 39.5398C12.874 39.1883 12.3929 38.9908 11.8913 38.9908C11.3897 38.9908 10.9086 39.1883 10.554 39.5398C10.1993 39.8913 10 40.3681 10 40.8653C10 41.3624 10.1993 41.8392 10.554 42.1908C10.9086 42.5423 11.3897 42.7398 11.8913 42.7398ZM32.1938 33.7922C31.7248 34.552 31.4348 35.7066 31.4348 37.1163C31.4348 38.5259 31.7248 39.6806 32.1938 40.4404C32.6326 41.1452 33.2025 41.4901 33.9565 41.4901C34.713 41.4901 35.2804 41.1452 35.7192 40.4404C36.1883 39.6806 36.4783 38.5259 36.4783 37.1163C36.4783 35.7066 36.1883 34.552 35.7192 33.7922C35.2804 33.0873 34.7105 32.7424 33.9565 32.7424C33.2 32.7424 32.6326 33.0873 32.1938 33.7922ZM30.0453 32.485C30.8674 31.1578 32.1888 30.2431 33.9565 30.2431C35.7217 30.2431 37.0457 31.1578 37.8677 32.485C38.6596 33.7647 39 35.4217 39 37.1163C39 38.8108 38.6596 40.4679 37.8677 41.7476C37.0457 43.0747 35.7243 43.9895 33.9565 43.9895C32.1913 43.9895 30.8674 43.0747 30.0453 41.7476C29.2535 40.4679 28.913 38.8108 28.913 37.1163C28.913 35.4217 29.2535 33.7647 30.0453 32.485ZM19.6204 33.7522C20.7628 32.8349 21.6958 32.6749 22.3212 32.7649C22.6034 32.7999 22.8735 32.8994 23.1103 33.0556C23.347 33.2117 23.5439 33.4202 23.6855 33.6647C23.9276 34.0996 23.9175 34.5395 23.7031 34.8794C23.4863 35.2243 22.8861 35.7341 21.4033 35.8866C21.0898 35.9188 20.7998 36.0662 20.5905 36.2998C20.3812 36.5333 20.2678 36.8361 20.2725 37.1484C20.2773 37.4608 20.3999 37.76 20.6162 37.9872C20.8325 38.2144 21.1268 38.3531 21.4411 38.3759C22.9189 38.4859 23.5014 38.9783 23.7057 39.3007C23.9124 39.6256 23.9326 40.073 23.6804 40.5304C23.5392 40.7818 23.3416 40.9977 23.1029 41.1615C22.8642 41.3253 22.5907 41.4326 22.3036 41.4751C21.6807 41.5726 20.7577 41.4251 19.6204 40.5104C19.4918 40.407 19.3438 40.3297 19.1851 40.283C19.0263 40.2363 18.8598 40.221 18.695 40.2381C18.5303 40.2551 18.3706 40.3042 18.225 40.3824C18.0793 40.4607 17.9507 40.5666 17.8464 40.6941C17.7421 40.8216 17.6641 40.9682 17.617 41.1256C17.5698 41.283 17.5544 41.448 17.5716 41.6113C17.5889 41.7745 17.6384 41.9329 17.7173 42.0772C17.7962 42.2215 17.9031 42.349 18.0317 42.4524C19.6028 43.7145 21.2293 44.1744 22.697 43.942C23.3668 43.8402 24.004 43.5871 24.5593 43.2023C25.1146 42.8174 25.5732 42.3111 25.8996 41.7226C26.5048 40.6154 26.6157 39.1882 25.839 37.9685C25.6283 37.6389 25.3671 37.3438 25.0649 37.0938C25.3725 36.8313 25.6348 36.5339 25.8416 36.2015C26.6107 34.9818 26.5098 33.5622 25.892 32.455C25.5619 31.8725 25.0999 31.3739 24.5425 30.9983C23.985 30.6228 23.3472 30.3805 22.6793 30.2906C21.2167 30.0831 19.5977 30.553 18.0317 31.8102C17.7719 32.019 17.6064 32.3215 17.5716 32.6513C17.5369 32.981 17.6357 33.3109 17.8464 33.5685C18.0571 33.826 18.3623 33.99 18.695 34.0245C19.0277 34.0589 19.3606 33.961 19.6204 33.7522Z" fill="black"/>
</svg>
