<svg width="48" height="48" viewBox="0 0 48 48" fill="none" xmlns="http://www.w3.org/2000/svg">
<path d="M22.7575 14C23.089 14 23.407 14.1317 23.6414 14.3661C23.8758 14.6005 24.0075 14.9185 24.0075 15.25V24H30.2575C30.589 24 30.907 24.1317 31.1414 24.3661C31.3758 24.6005 31.5075 24.9185 31.5075 25.25C31.5075 25.5815 31.3758 25.8995 31.1414 26.1339C30.907 26.3683 30.589 26.5 30.2575 26.5H22.7575C22.426 26.5 22.108 26.3683 21.8736 26.1339C21.6392 25.8995 21.5075 25.5815 21.5075 25.25V15.25C21.5075 14.9185 21.6392 14.6005 21.8736 14.3661C22.108 14.1317 22.426 14 22.7575 14ZM15.25 9C13.5924 9 12.0027 9.65848 10.8306 10.8306C9.65848 12.0027 9 13.5924 9 15.25V32.75C9 34.4076 9.65848 35.9973 10.8306 37.1694C12.0027 38.3415 13.5924 39 15.25 39H32.75C34.4076 39 35.9973 38.3415 37.1694 37.1694C38.3415 35.9973 39 34.4076 39 32.75V15.25C39 13.5924 38.3415 12.0027 37.1694 10.8306C35.9973 9.65848 34.4076 9 32.75 9H15.25ZM11.5 15.25C11.5 14.2554 11.8951 13.3016 12.5983 12.5983C13.3016 11.8951 14.2554 11.5 15.25 11.5H32.75C33.7446 11.5 34.6984 11.8951 35.4017 12.5983C36.1049 13.3016 36.5 14.2554 36.5 15.25V32.75C36.5 33.7446 36.1049 34.6984 35.4017 35.4017C34.6984 36.1049 33.7446 36.5 32.75 36.5H15.25C14.2554 36.5 13.3016 36.1049 12.5983 35.4017C11.8951 34.6984 11.5 33.7446 11.5 32.75V15.25Z" fill="black"/>
</svg>
