<svg width="48" height="48" viewBox="0 0 48 48" fill="none" xmlns="http://www.w3.org/2000/svg">
<path d="M18.4583 12.61H18.1667C18.3271 12.61 18.4583 12.4795 18.4583 12.32V12.61H29.5417V12.32C29.5417 12.4795 29.6729 12.61 29.8333 12.61H29.5417V15.22H32.1667V12.32C32.1667 11.0404 31.1203 10 29.8333 10H18.1667C16.8797 10 15.8333 11.0404 15.8333 12.32V15.22H18.4583V12.61ZM36.8333 15.22H11.1667C10.5214 15.22 10 15.7384 10 16.38V17.54C10 17.6995 10.1312 17.83 10.2917 17.83H12.4937L13.3943 36.7887C13.4526 38.0249 14.4807 39 15.724 39H32.276C33.5229 39 34.5474 38.0285 34.6057 36.7887L35.5062 17.83H37.7083C37.8687 17.83 38 17.6995 38 17.54V16.38C38 15.7384 37.4786 15.22 36.8333 15.22ZM31.9953 36.39H16.0047L15.1224 17.83H32.8776L31.9953 36.39Z" fill="black"/>
</svg>
